<svg width="220" height="50" viewBox="0 0 220 50" fill="none" xmlns="http://www.w3.org/2000/svg">
  <defs>
    <linearGradient id="gatorBlue1" x1="0" y1="0" x2="1" y2="1">
      <stop offset="0%" stop-color="#2563eb"/>
      <stop offset="100%" stop-color="#1e40af"/>
    </linearGradient>
    <linearGradient id="gatorAccent1" x1="0" y1="0" x2="0" y2="1">
      <stop offset="0%" stop-color="#c5a05e"/>
      <stop offset="100%" stop-color="#a8893d"/>
    </linearGradient>
  </defs>

  <!-- Option 1: Stylized Gator Head Profile - Clean & Professional -->
  <g transform="translate(2, 5)">
    <!-- Gator head silhouette -->
    <path d="M2 20 L2 28 Q2 32 6 34 L28 38 Q32 38 34 36 L38 32 L36 30 L32 32 L28 30 L24 32 L20 30 L18 28 L38 24 Q42 22 42 18 L42 14 Q42 10 38 8 L12 8 Q6 8 4 12 L2 20Z"
          fill="url(#gatorBlue1)"/>
    <!-- Eye -->
    <circle cx="14" cy="16" r="4" fill="#0a1628"/>
    <circle cx="15" cy="15" r="1.5" fill="#c5a05e"/>
    <!-- Teeth highlights -->
    <path d="M20 30 L21 28 M24 32 L25 30 M28 30 L29 28" stroke="white" stroke-width="1.5" stroke-linecap="round"/>
    <!-- Nostril -->
    <circle cx="38" cy="16" r="1.5" fill="#0a1628"/>
    <!-- Scale texture -->
    <circle cx="10" cy="24" r="1" fill="#1e40af" opacity="0.5"/>
    <circle cx="8" cy="20" r="1" fill="#1e40af" opacity="0.5"/>
  </g>

  <!-- GEEKBYTE text -->
  <text x="52" y="33" font-family="Inter, system-ui, sans-serif" font-size="26" font-weight="700" letter-spacing="-0.02em">
    <tspan fill="#0a1628">GEEK</tspan><tspan fill="url(#gatorBlue1)">BYTE</tspan>
  </text>

  <!-- Gold accent underline -->
  <line x1="52" y1="40" x2="134" y2="40" stroke="url(#gatorAccent1)" stroke-width="2" stroke-linecap="round" opacity="0.7"/>
</svg>