<svg width="400" height="400" viewBox="0 0 400 400" fill="none" xmlns="http://www.w3.org/2000/svg">
  <defs>
    <linearGradient id="testGradient" x1="0" y1="0" x2="1" y2="1">
      <stop offset="0%" stop-color="#1e40af"/>
      <stop offset="100%" stop-color="#c5a05e"/>
    </linearGradient>
  </defs>

  <!-- Central quote/results badge -->
  <circle cx="200" cy="200" r="65" fill="#1e40af" opacity="0.1"/>
  <circle cx="200" cy="200" r="65" fill="none" stroke="#1e40af" stroke-width="2"/>
  <text x="200" y="190" text-anchor="middle" fill="#ffffff" font-family="Inter, sans-serif" font-size="14" font-weight="700">PROVEN</text>
  <text x="200" y="210" text-anchor="middle" fill="#ffffff" font-family="Inter, sans-serif" font-size="14" font-weight="700">RESULTS</text>

  <!-- Outer ring -->
  <circle cx="200" cy="200" r="140" fill="none" stroke="#1e40af" stroke-width="1" opacity="0.15"/>

  <!-- Top: ECI Experience -->
  <rect x="140" y="35" rx="8" width="120" height="55" fill="#1e40af" opacity="0.08"/>
  <rect x="140" y="35" rx="8" width="120" height="55" fill="none" stroke="url(#testGradient)" stroke-width="2"/>
  <text x="200" y="58" text-anchor="middle" fill="#ffffff" font-family="Inter, sans-serif" font-size="11" font-weight="700">ECI SOFTWARE</text>
  <text x="200" y="73" text-anchor="middle" fill="#ffffff" font-family="Inter, sans-serif" font-size="10" font-weight="600">Global CTO</text>
  <text x="200" y="85" text-anchor="middle" fill="#c5a05e" font-family="Inter, sans-serif" font-size="9" font-weight="600">8 Years</text>
  <line x1="200" y1="90" x2="200" y2="135" stroke="#c5a05e" stroke-width="1.5" opacity="0.4"/>
  <circle cx="200" cy="112" r="3" fill="#c5a05e" opacity="0.6"/>

  <!-- Top Right: Revenue -->
  <circle cx="310" cy="120" r="38" fill="#c5a05e" opacity="0.12"/>
  <circle cx="310" cy="120" r="38" fill="none" stroke="#c5a05e" stroke-width="2"/>
  <text x="310" y="115" text-anchor="middle" fill="#ffffff" font-family="Inter, sans-serif" font-size="18" font-weight="800">3x</text>
  <text x="310" y="130" text-anchor="middle" fill="#ffffff" font-family="Inter, sans-serif" font-size="9" font-weight="600">REVENUE</text>
  <line x1="278" y1="145" x2="248" y2="175" stroke="#c5a05e" stroke-width="1.5" opacity="0.4"/>
  <circle cx="263" cy="160" r="3" fill="#c5a05e" opacity="0.6"/>

  <!-- Right: M&A Count -->
  <circle cx="330" cy="220" r="38" fill="#1e40af" opacity="0.08"/>
  <circle cx="330" cy="220" r="38" fill="none" stroke="url(#testGradient)" stroke-width="2"/>
  <text x="330" y="215" text-anchor="middle" fill="#ffffff" font-family="Inter, sans-serif" font-size="18" font-weight="800">27</text>
  <text x="330" y="230" text-anchor="middle" fill="#ffffff" font-family="Inter, sans-serif" font-size="9" font-weight="600">M&amp;A DEALS</text>
  <line x1="295" y1="210" x2="265" y2="200" stroke="#c5a05e" stroke-width="1.5" opacity="0.4"/>
  <circle cx="280" cy="205" r="3" fill="#c5a05e" opacity="0.6"/>

  <!-- Bottom Right: ARR Growth -->
  <rect x="255" y="300" rx="8" width="100" height="55" fill="#1e40af" opacity="0.08"/>
  <rect x="255" y="300" rx="8" width="100" height="55" fill="none" stroke="url(#testGradient)" stroke-width="2"/>
  <text x="305" y="323" text-anchor="middle" fill="#ffffff" font-family="Inter, sans-serif" font-size="11" font-weight="700">$27M-$85M</text>
  <text x="305" y="340" text-anchor="middle" fill="#ffffff" font-family="Inter, sans-serif" font-size="9" font-weight="600">ARR GROWTH</text>
  <line x1="270" y1="300" x2="235" y2="265" stroke="#c5a05e" stroke-width="1.5" opacity="0.4"/>
  <circle cx="253" cy="283" r="3" fill="#c5a05e" opacity="0.6"/>

  <!-- Bottom Left: PE Exits -->
  <circle cx="90" cy="300" r="38" fill="#c5a05e" opacity="0.12"/>
  <circle cx="90" cy="300" r="38" fill="none" stroke="#c5a05e" stroke-width="2"/>
  <text x="90" y="295" text-anchor="middle" fill="#ffffff" font-family="Inter, sans-serif" font-size="18" font-weight="800">4</text>
  <text x="90" y="312" text-anchor="middle" fill="#ffffff" font-family="Inter, sans-serif" font-size="9" font-weight="600">PE EXITS</text>
  <line x1="120" y1="275" x2="155" y2="245" stroke="#c5a05e" stroke-width="1.5" opacity="0.4"/>
  <circle cx="138" cy="260" r="3" fill="#c5a05e" opacity="0.6"/>

  <!-- Left: Cloud Migrations -->
  <circle cx="70" cy="200" r="38" fill="#1e40af" opacity="0.08"/>
  <circle cx="70" cy="200" r="38" fill="none" stroke="url(#testGradient)" stroke-width="2"/>
  <text x="70" y="195" text-anchor="middle" fill="#ffffff" font-family="Inter, sans-serif" font-size="18" font-weight="800">15</text>
  <text x="70" y="210" text-anchor="middle" fill="#ffffff" font-family="Inter, sans-serif" font-size="9" font-weight="600">CLOUD</text>
  <line x1="105" y1="190" x2="135" y2="190" stroke="#c5a05e" stroke-width="1.5" opacity="0.4"/>
  <circle cx="120" cy="190" r="3" fill="#c5a05e" opacity="0.6"/>

  <!-- Top Left: Sage/Abila -->
  <rect x="45" y="95" rx="8" width="95" height="50" fill="#1e40af" opacity="0.08"/>
  <rect x="45" y="95" rx="8" width="95" height="50" fill="none" stroke="url(#testGradient)" stroke-width="2"/>
  <text x="93" y="115" text-anchor="middle" fill="#ffffff" font-family="Inter, sans-serif" font-size="11" font-weight="700">SAGE/ABILA</text>
  <text x="93" y="130" text-anchor="middle" fill="#ffffff" font-family="Inter, sans-serif" font-size="10" font-weight="600">SVP R&amp;D</text>
  <line x1="130" y1="145" x2="158" y2="168" stroke="#c5a05e" stroke-width="1.5" opacity="0.4"/>
  <circle cx="144" cy="157" r="3" fill="#c5a05e" opacity="0.6"/>

  <!-- Decorative checkmarks for verified feel -->
  <path d="M355 50 L362 57 L375 42" stroke="#c5a05e" stroke-width="2.5" stroke-linecap="round" stroke-linejoin="round" fill="none" opacity="0.5"/>
  <path d="M25 350 L32 357 L45 342" stroke="#c5a05e" stroke-width="2.5" stroke-linecap="round" stroke-linejoin="round" fill="none" opacity="0.5"/>
</svg>
