<svg width="400" height="400" viewBox="0 0 400 400" fill="none" xmlns="http://www.w3.org/2000/svg">
  <defs>
    <linearGradient id="expGradient" x1="0" y1="0" x2="1" y2="1">
      <stop offset="0%" stop-color="#1e40af"/>
      <stop offset="100%" stop-color="#c5a05e"/>
    </linearGradient>
  </defs>

  <!-- Timeline vertical line -->
  <line x1="200" y1="50" x2="200" y2="350" stroke="#1e40af" stroke-width="2" opacity="0.2"/>

  <!-- Progress fill on timeline -->
  <line x1="200" y1="50" x2="200" y2="350" stroke="url(#expGradient)" stroke-width="3" stroke-linecap="round"/>

  <!-- Top milestone: PE Exits -->
  <circle cx="200" cy="80" r="25" fill="#c5a05e" opacity="0.15"/>
  <circle cx="200" cy="80" r="25" fill="none" stroke="#c5a05e" stroke-width="2"/>
  <text x="200" y="77" text-anchor="middle" fill="#ffffff" font-family="Inter, sans-serif" font-size="16" font-weight="800">4</text>
  <text x="200" y="92" text-anchor="middle" fill="#ffffff" font-family="Inter, sans-serif" font-size="8" font-weight="600">EXITS</text>

  <!-- PE Exits detail card - right -->
  <rect x="245" y="55" rx="8" width="120" height="50" fill="#1e40af" opacity="0.06"/>
  <rect x="245" y="55" rx="8" width="120" height="50" fill="none" stroke="#1e40af" stroke-width="1.5"/>
  <text x="305" y="75" text-anchor="middle" fill="#ffffff" font-family="Inter, sans-serif" font-size="10" font-weight="700">SUCCESSFUL</text>
  <text x="305" y="90" text-anchor="middle" fill="#ffffff" font-family="Inter, sans-serif" font-size="10" font-weight="700">PE EXITS</text>
  <line x1="225" y1="80" x2="245" y2="80" stroke="#c5a05e" stroke-width="1.5" opacity="0.5"/>

  <!-- Second milestone: M&A Integrations -->
  <circle cx="200" cy="160" r="25" fill="#1e40af" opacity="0.08"/>
  <circle cx="200" cy="160" r="25" fill="none" stroke="#1e40af" stroke-width="2"/>
  <text x="200" y="157" text-anchor="middle" fill="#ffffff" font-family="Inter, sans-serif" font-size="14" font-weight="800">27</text>
  <text x="200" y="172" text-anchor="middle" fill="#ffffff" font-family="Inter, sans-serif" font-size="7" font-weight="600">M&amp;A</text>

  <!-- M&A detail card - left -->
  <rect x="35" y="135" rx="8" width="120" height="50" fill="#1e40af" opacity="0.06"/>
  <rect x="35" y="135" rx="8" width="120" height="50" fill="none" stroke="#1e40af" stroke-width="1.5"/>
  <text x="95" y="155" text-anchor="middle" fill="#ffffff" font-family="Inter, sans-serif" font-size="10" font-weight="700">TECHNOLOGY</text>
  <text x="95" y="170" text-anchor="middle" fill="#ffffff" font-family="Inter, sans-serif" font-size="10" font-weight="700">INTEGRATIONS</text>
  <line x1="155" y1="160" x2="175" y2="160" stroke="#c5a05e" stroke-width="1.5" opacity="0.5"/>

  <!-- Third milestone: Cloud Migrations -->
  <circle cx="200" cy="240" r="25" fill="#1e40af" opacity="0.08"/>
  <circle cx="200" cy="240" r="25" fill="none" stroke="#1e40af" stroke-width="2"/>
  <text x="200" y="237" text-anchor="middle" fill="#ffffff" font-family="Inter, sans-serif" font-size="14" font-weight="800">15</text>
  <text x="200" y="252" text-anchor="middle" fill="#ffffff" font-family="Inter, sans-serif" font-size="7" font-weight="600">CLOUD</text>

  <!-- Cloud detail card - right -->
  <rect x="245" y="215" rx="8" width="120" height="50" fill="#1e40af" opacity="0.06"/>
  <rect x="245" y="215" rx="8" width="120" height="50" fill="none" stroke="#1e40af" stroke-width="1.5"/>
  <text x="305" y="235" text-anchor="middle" fill="#ffffff" font-family="Inter, sans-serif" font-size="10" font-weight="700">SAAS</text>
  <text x="305" y="250" text-anchor="middle" fill="#ffffff" font-family="Inter, sans-serif" font-size="10" font-weight="700">MIGRATIONS</text>
  <line x1="225" y1="240" x2="245" y2="240" stroke="#c5a05e" stroke-width="1.5" opacity="0.5"/>

  <!-- Bottom milestone: Revenue Growth -->
  <circle cx="200" cy="320" r="25" fill="#c5a05e" opacity="0.15"/>
  <circle cx="200" cy="320" r="25" fill="none" stroke="#c5a05e" stroke-width="2"/>
  <text x="200" y="317" text-anchor="middle" fill="#ffffff" font-family="Inter, sans-serif" font-size="14" font-weight="800">3x</text>
  <text x="200" y="332" text-anchor="middle" fill="#ffffff" font-family="Inter, sans-serif" font-size="7" font-weight="600">GROWTH</text>

  <!-- Revenue detail card - left -->
  <rect x="35" y="295" rx="8" width="120" height="50" fill="#c5a05e" opacity="0.08"/>
  <rect x="35" y="295" rx="8" width="120" height="50" fill="none" stroke="#c5a05e" stroke-width="1.5"/>
  <text x="95" y="315" text-anchor="middle" fill="#ffffff" font-family="Inter, sans-serif" font-size="10" font-weight="700">REVENUE</text>
  <text x="95" y="330" text-anchor="middle" fill="#ffffff" font-family="Inter, sans-serif" font-size="10" font-weight="700">AT ECI</text>
  <line x1="155" y1="320" x2="175" y2="320" stroke="#c5a05e" stroke-width="1.5" opacity="0.5"/>

  <!-- Decorative upward arrows on timeline -->
  <path d="M195 55 L200 45 L205 55" stroke="#c5a05e" stroke-width="2" stroke-linecap="round" stroke-linejoin="round" fill="none"/>
  <path d="M195 355 L200 365 L205 355" stroke="#1e40af" stroke-width="2" stroke-linecap="round" stroke-linejoin="round" fill="none" opacity="0.3"/>

  <!-- Subtle connecting dots -->
  <circle cx="200" cy="120" r="4" fill="#1e40af" opacity="0.3"/>
  <circle cx="200" cy="200" r="4" fill="#1e40af" opacity="0.3"/>
  <circle cx="200" cy="280" r="4" fill="#1e40af" opacity="0.3"/>
</svg>
