<svg width="400" height="400" viewBox="0 0 400 400" fill="none" xmlns="http://www.w3.org/2000/svg">
  <defs>
    <linearGradient id="growthGradient" x1="0" y1="0" x2="1" y2="1">
      <stop offset="0%" stop-color="#1e40af"/>
      <stop offset="100%" stop-color="#c5a05e"/>
    </linearGradient>
  </defs>

  <!-- Central hub - Post-Close Execution -->
  <circle cx="200" cy="200" r="55" fill="#1e40af" opacity="0.1"/>
  <circle cx="200" cy="200" r="55" fill="none" stroke="#1e40af" stroke-width="2"/>
  <text x="200" y="190" text-anchor="middle" fill="#1e40af" font-family="Inter, sans-serif" font-size="11" font-weight="700">POST-CLOSE</text>
  <text x="200" y="205" text-anchor="middle" fill="#1e40af" font-family="Inter, sans-serif" font-size="11" font-weight="700">EXECUTION</text>
  <text x="200" y="220" text-anchor="middle" fill="#c5a05e" font-family="Inter, sans-serif" font-size="9" font-weight="600">Value Creation</text>

  <!-- Outer connection ring -->
  <circle cx="200" cy="200" r="130" fill="none" stroke="#1e40af" stroke-width="1" opacity="0.15"/>

  <!-- Top: DD Remediation -->
  <circle cx="200" cy="70" r="35" fill="#c5a05e" opacity="0.12"/>
  <circle cx="200" cy="70" r="35" fill="none" stroke="#c5a05e" stroke-width="2"/>
  <text x="200" y="65" text-anchor="middle" fill="#ffffff" font-family="Inter, sans-serif" font-size="9" font-weight="700">DD</text>
  <text x="200" y="77" text-anchor="middle" fill="#ffffff" font-family="Inter, sans-serif" font-size="9" font-weight="700">REMEDIATION</text>
  <line x1="200" y1="105" x2="200" y2="145" stroke="#c5a05e" stroke-width="1.5" opacity="0.4"/>
  <circle cx="200" cy="125" r="3" fill="#c5a05e" opacity="0.6"/>

  <!-- Top Right: 100-Day Plan -->
  <circle cx="310" cy="130" r="35" fill="#1e40af" opacity="0.08"/>
  <circle cx="310" cy="130" r="35" fill="none" stroke="url(#growthGradient)" stroke-width="2"/>
  <text x="310" y="125" text-anchor="middle" fill="#ffffff" font-family="Inter, sans-serif" font-size="9" font-weight="700">100-DAY</text>
  <text x="310" y="137" text-anchor="middle" fill="#ffffff" font-family="Inter, sans-serif" font-size="9" font-weight="700">PLAN</text>
  <line x1="280" y1="152" x2="248" y2="175" stroke="#c5a05e" stroke-width="1.5" opacity="0.4"/>
  <circle cx="264" cy="164" r="3" fill="#c5a05e" opacity="0.6"/>

  <!-- Right: Platform Modernization -->
  <circle cx="330" cy="230" r="35" fill="#1e40af" opacity="0.08"/>
  <circle cx="330" cy="230" r="35" fill="none" stroke="url(#growthGradient)" stroke-width="2"/>
  <text x="330" y="225" text-anchor="middle" fill="#ffffff" font-family="Inter, sans-serif" font-size="8" font-weight="700">PLATFORM</text>
  <text x="330" y="237" text-anchor="middle" fill="#ffffff" font-family="Inter, sans-serif" font-size="8" font-weight="700">MODERNIZATION</text>
  <line x1="298" y1="218" x2="252" y2="208" stroke="#c5a05e" stroke-width="1.5" opacity="0.4"/>
  <circle cx="275" cy="213" r="3" fill="#c5a05e" opacity="0.6"/>

  <!-- Bottom Right: Integration -->
  <circle cx="290" cy="320" r="35" fill="#c5a05e" opacity="0.12"/>
  <circle cx="290" cy="320" r="35" fill="none" stroke="#c5a05e" stroke-width="2"/>
  <text x="290" y="315" text-anchor="middle" fill="#ffffff" font-family="Inter, sans-serif" font-size="9" font-weight="700">M&amp;A</text>
  <text x="290" y="327" text-anchor="middle" fill="#ffffff" font-family="Inter, sans-serif" font-size="9" font-weight="700">INTEGRATION</text>
  <line x1="262" y1="295" x2="230" y2="248" stroke="#c5a05e" stroke-width="1.5" opacity="0.4"/>
  <circle cx="246" cy="272" r="3" fill="#c5a05e" opacity="0.6"/>

  <!-- Bottom Left: Team Assessment -->
  <circle cx="110" cy="320" r="35" fill="#1e40af" opacity="0.08"/>
  <circle cx="110" cy="320" r="35" fill="none" stroke="url(#growthGradient)" stroke-width="2"/>
  <text x="110" y="315" text-anchor="middle" fill="#ffffff" font-family="Inter, sans-serif" font-size="9" font-weight="700">TEAM</text>
  <text x="110" y="327" text-anchor="middle" fill="#ffffff" font-family="Inter, sans-serif" font-size="9" font-weight="700">ASSESSMENT</text>
  <line x1="138" y1="295" x2="170" y2="248" stroke="#c5a05e" stroke-width="1.5" opacity="0.4"/>
  <circle cx="154" cy="272" r="3" fill="#c5a05e" opacity="0.6"/>

  <!-- Left: Governance -->
  <circle cx="70" cy="230" r="35" fill="#1e40af" opacity="0.08"/>
  <circle cx="70" cy="230" r="35" fill="none" stroke="url(#growthGradient)" stroke-width="2"/>
  <text x="70" y="227" text-anchor="middle" fill="#ffffff" font-family="Inter, sans-serif" font-size="9" font-weight="700">GOVERNANCE</text>
  <text x="70" y="239" text-anchor="middle" fill="#ffffff" font-family="Inter, sans-serif" font-size="8" font-weight="600">&amp; METRICS</text>
  <line x1="102" y1="218" x2="148" y2="208" stroke="#c5a05e" stroke-width="1.5" opacity="0.4"/>
  <circle cx="125" cy="213" r="3" fill="#c5a05e" opacity="0.6"/>

  <!-- Top Left: Quick Wins -->
  <circle cx="90" cy="130" r="35" fill="#c5a05e" opacity="0.12"/>
  <circle cx="90" cy="130" r="35" fill="none" stroke="#c5a05e" stroke-width="2"/>
  <text x="90" y="125" text-anchor="middle" fill="#ffffff" font-family="Inter, sans-serif" font-size="9" font-weight="700">QUICK</text>
  <text x="90" y="137" text-anchor="middle" fill="#ffffff" font-family="Inter, sans-serif" font-size="9" font-weight="700">WINS</text>
  <line x1="120" y1="152" x2="152" y2="175" stroke="#c5a05e" stroke-width="1.5" opacity="0.4"/>
  <circle cx="136" cy="164" r="3" fill="#c5a05e" opacity="0.6"/>

  <!-- Upward arrow indicating growth -->
  <path d="M360 380 L370 360 L380 380" stroke="#c5a05e" stroke-width="2.5" stroke-linecap="round" stroke-linejoin="round" fill="none" opacity="0.5"/>
  <line x1="370" y1="360" x2="370" y2="395" stroke="#c5a05e" stroke-width="2.5" stroke-linecap="round" opacity="0.5"/>

  <!-- Checkmark for completion -->
  <path d="M20 380 L27 387 L40 372" stroke="#c5a05e" stroke-width="2.5" stroke-linecap="round" stroke-linejoin="round" fill="none" opacity="0.5"/>
</svg>
