<svg width="400" height="400" viewBox="0 0 400 400" fill="none" xmlns="http://www.w3.org/2000/svg">
  <defs>
    <linearGradient id="testGradient" x1="0" y1="0" x2="1" y2="1">
      <stop offset="0%" stop-color="#1e40af"/>
      <stop offset="100%" stop-color="#c5a05e"/>
    </linearGradient>
  </defs>

  <!-- Central quote/results badge -->
  <circle cx="200" cy="200" r="60" fill="#1e40af" opacity="0.1"/>
  <circle cx="200" cy="200" r="60" fill="none" stroke="#1e40af" stroke-width="2"/>
  <text x="200" y="190" text-anchor="middle" fill="#ffffff" font-family="Inter, sans-serif" font-size="14" font-weight="700">PROVEN</text>
  <text x="200" y="210" text-anchor="middle" fill="#ffffff" font-family="Inter, sans-serif" font-size="14" font-weight="700">RESULTS</text>

  <!-- Outer ring -->
  <circle cx="200" cy="200" r="145" fill="none" stroke="#1e40af" stroke-width="1" opacity="0.15"/>

  <!-- Top: 4 PE Exits -->
  <circle cx="200" cy="55" r="38" fill="#c5a05e" opacity="0.12"/>
  <circle cx="200" cy="55" r="38" fill="none" stroke="#c5a05e" stroke-width="2"/>
  <text x="200" y="50" text-anchor="middle" fill="#ffffff" font-family="Inter, sans-serif" font-size="18" font-weight="800">4</text>
  <text x="200" y="65" text-anchor="middle" fill="#ffffff" font-family="Inter, sans-serif" font-size="9" font-weight="600">PE EXITS</text>
  <line x1="200" y1="93" x2="200" y2="140" stroke="#c5a05e" stroke-width="1.5" opacity="0.4"/>
  <circle cx="200" cy="117" r="3" fill="#c5a05e" opacity="0.6"/>

  <!-- Top Right: 27+ M&A -->
  <circle cx="325" cy="125" r="38" fill="#1e40af" opacity="0.08"/>
  <circle cx="325" cy="125" r="38" fill="none" stroke="url(#testGradient)" stroke-width="2"/>
  <text x="325" y="120" text-anchor="middle" fill="#ffffff" font-family="Inter, sans-serif" font-size="16" font-weight="800">27+</text>
  <text x="325" y="135" text-anchor="middle" fill="#ffffff" font-family="Inter, sans-serif" font-size="9" font-weight="600">M&amp;A DEALS</text>
  <line x1="292" y1="148" x2="248" y2="172" stroke="#c5a05e" stroke-width="1.5" opacity="0.4"/>
  <circle cx="270" cy="160" r="3" fill="#c5a05e" opacity="0.6"/>

  <!-- Bottom Right: 6x ARR Growth -->
  <circle cx="325" cy="275" r="38" fill="#c5a05e" opacity="0.12"/>
  <circle cx="325" cy="275" r="38" fill="none" stroke="#c5a05e" stroke-width="2"/>
  <text x="325" y="270" text-anchor="middle" fill="#ffffff" font-family="Inter, sans-serif" font-size="18" font-weight="800">6x</text>
  <text x="325" y="285" text-anchor="middle" fill="#ffffff" font-family="Inter, sans-serif" font-size="9" font-weight="600">ARR GROWTH</text>
  <line x1="292" y1="252" x2="248" y2="228" stroke="#c5a05e" stroke-width="1.5" opacity="0.4"/>
  <circle cx="270" cy="240" r="3" fill="#c5a05e" opacity="0.6"/>

  <!-- Bottom: 15 Cloud -->
  <circle cx="200" cy="345" r="38" fill="#1e40af" opacity="0.08"/>
  <circle cx="200" cy="345" r="38" fill="none" stroke="url(#testGradient)" stroke-width="2"/>
  <text x="200" y="335" text-anchor="middle" fill="#ffffff" font-family="Inter, sans-serif" font-size="18" font-weight="800">15</text>
  <text x="200" y="349" text-anchor="middle" fill="#ffffff" font-family="Inter, sans-serif" font-size="7" font-weight="600">CLOUD</text>
  <text x="200" y="359" text-anchor="middle" fill="#ffffff" font-family="Inter, sans-serif" font-size="7" font-weight="600">MIGRATIONS</text>
  <line x1="200" y1="307" x2="200" y2="260" stroke="#c5a05e" stroke-width="1.5" opacity="0.4"/>
  <circle cx="200" cy="283" r="3" fill="#c5a05e" opacity="0.6"/>

  <!-- Bottom Left: ECI -->
  <circle cx="75" cy="275" r="38" fill="#1e40af" opacity="0.08"/>
  <circle cx="75" cy="275" r="38" fill="none" stroke="url(#testGradient)" stroke-width="2"/>
  <text x="75" y="267" text-anchor="middle" fill="#ffffff" font-family="Inter, sans-serif" font-size="10" font-weight="700">ECI</text>
  <text x="75" y="280" text-anchor="middle" fill="#ffffff" font-family="Inter, sans-serif" font-size="8" font-weight="600">Global CTO</text>
  <text x="75" y="291" text-anchor="middle" fill="#c5a05e" font-family="Inter, sans-serif" font-size="8" font-weight="600">8 Years</text>
  <line x1="108" y1="252" x2="152" y2="228" stroke="#c5a05e" stroke-width="1.5" opacity="0.4"/>
  <circle cx="130" cy="240" r="3" fill="#c5a05e" opacity="0.6"/>

  <!-- Top Left: Sage/Abila -->
  <circle cx="75" cy="125" r="38" fill="#c5a05e" opacity="0.12"/>
  <circle cx="75" cy="125" r="38" fill="none" stroke="#c5a05e" stroke-width="2"/>
  <text x="75" y="117" text-anchor="middle" fill="#ffffff" font-family="Inter, sans-serif" font-size="9" font-weight="700">SAGE/ABILA</text>
  <text x="75" y="130" text-anchor="middle" fill="#ffffff" font-family="Inter, sans-serif" font-size="8" font-weight="600">SVP R&amp;D</text>
  <line x1="108" y1="148" x2="152" y2="172" stroke="#c5a05e" stroke-width="1.5" opacity="0.4"/>
  <circle cx="130" cy="160" r="3" fill="#c5a05e" opacity="0.6"/>

  <!-- Decorative checkmarks for verified feel -->
  <path d="M355 45 L362 52 L375 37" stroke="#c5a05e" stroke-width="2.5" stroke-linecap="round" stroke-linejoin="round" fill="none" opacity="0.5"/>
  <path d="M25 355 L32 362 L45 347" stroke="#c5a05e" stroke-width="2.5" stroke-linecap="round" stroke-linejoin="round" fill="none" opacity="0.5"/>
</svg>
