<svg width="32" height="32" viewBox="0 0 32 32" fill="none" xmlns="http://www.w3.org/2000/svg">
  <path d="M16 3L6 7V14C6 21 11 26 16 29C21 26 26 21 26 14V7L16 3Z" stroke="#1e40af" stroke-width="2" stroke-linejoin="round" fill="none"/>
  <path d="M16 3L6 7V14C6 21 11 26 16 29C21 26 26 21 26 14V7L16 3Z" fill="url(#shieldGradient)" opacity="0.1"/>
  <line x1="16" y1="10" x2="16" y2="14" stroke="#c5a05e" stroke-width="1.5" stroke-linecap="round"/>
  <line x1="13" y1="12" x2="19" y2="12" stroke="#c5a05e" stroke-width="1.5" stroke-linecap="round"/>
  <circle cx="13" cy="12" r="1" fill="#1e40af"/>
  <circle cx="19" cy="12" r="1" fill="#1e40af"/>
  <circle cx="16" cy="10" r="1" fill="#1e40af"/>
  <circle cx="16" cy="14" r="1" fill="#1e40af"/>
  <defs>
    <linearGradient id="shieldGradient" x1="6" y1="3" x2="26" y2="29" gradientUnits="userSpaceOnUse">
      <stop offset="0%" stop-color="#1e40af"/>
      <stop offset="100%" stop-color="#c5a05e"/>
    </linearGradient>
  </defs>
</svg>
